<?xml version="1.0" standalone="no"?><!DOCTYPE svg PUBLIC "-//W3C//DTD SVG 1.1//EN" "http://www.w3.org/Graphics/SVG/1.1/DTD/svg11.dtd"><svg t="1595214392312" class="icon" viewBox="0 0 1024 1024" version="1.1" xmlns="http://www.w3.org/2000/svg" p-id="629" xmlns:xlink="http://www.w3.org/1999/xlink" width="200" height="200"><defs><style type="text/css"></style></defs><path d="M326.4 348.8H304c-13.6 0-24 10.4-24 24s10.4 24 24 24h21.6c13.6 0 24-10.4 24-24 0.8-13.6-10.4-24-23.2-24zM326.4 473.6H304c-13.6 0-24 10.4-24 24s10.4 24 24 24h21.6c13.6 0 24-10.4 24-24 0.8-13.6-10.4-24-23.2-24zM320.8 603.2H304c-13.6 0-24 10.4-24 24s10.4 24 24 24h16.8c13.6 0 24-10.4 24-24 0-12.8-10.4-24-24-24zM608 497.6c0-13.6-10.4-24-24-24H422.4c-13.6 0-24 10.4-24 24s10.4 24 24 24H584c3.2 0 6.4-0.8 9.6-1.6h0.8c8-4 13.6-12.8 13.6-22.4zM422.4 603.2c-13.6 0-24 10.4-24 24s10.4 24 24 24h30.4c9.6-16.8 20.8-32.8 33.6-48h-64zM584 348.8H422.4c-13.6 0-24 10.4-24 24s10.4 24 24 24H584c13.6 0 24-10.4 24-24s-10.4-24-24-24zM900 950.4l-62.4-84c32.8-28 54.4-67.2 60.8-110.4 7.2-48-4.8-95.2-33.6-134.4s-70.4-64-118.4-71.2c-48-7.2-95.2 4.8-134.4 33.6s-64 70.4-71.2 118.4c-7.2 48 4.8 95.2 33.6 134.4s70.4 64 118.4 71.2c39.2 5.6 79.2-0.8 113.6-20l62.4 84.8c3.2 4 8 6.4 12.8 7.2 4.8 0.8 9.6 0 14.4-3.2 8.8-6.4 10.4-18.4 4-26.4zM579.2 708c12-77.6 84.8-131.2 162.4-120 77.6 12 131.2 84.8 120 162.4-12 77.6-84.8 131.2-162.4 120-77.6-12-131.2-84.8-120-162.4z m0 0" p-id="630"></path><path d="M880.8 985.6c-6.4-0.8-12-4.8-16-9.6l-60-80.8c-34.4 17.6-73.6 24-112.8 18.4-49.6-7.2-92.8-33.6-122.4-73.6-29.6-40-41.6-89.6-34.4-138.4 7.2-49.6 33.6-92.8 73.6-122.4 40-29.6 89.6-41.6 138.4-34.4 49.6 7.2 92.8 33.6 122.4 73.6 29.6 40 41.6 89.6 34.4 138.4-6.4 42.4-27.2 81.6-59.2 110.4l59.2 80c4 5.6 5.6 12 4.8 18.4-0.8 6.4-4.8 12-9.6 16s-11.2 5.6-18.4 4zM808 880l65.6 88.8c2.4 3.2 5.6 4.8 8.8 5.6 3.2 0.8 7.2 0 9.6-2.4 3.2-2.4 4.8-5.6 5.6-8.8 0.8-3.2 0-7.2-2.4-9.6l-65.6-88 4-3.2c32-27.2 52.8-64.8 59.2-106.4 7.2-46.4-4.8-92-32-130.4-28-37.6-68.8-62.4-114.4-68.8-46.4-7.2-92 4.8-130.4 32-37.6 28-62.4 68.8-68.8 114.4-7.2 46.4 4.8 92 32 130.4 28 37.6 68.8 62.4 114.4 68.8 38.4 5.6 76-0.8 109.6-19.2l4.8-3.2z m-109.6-4.8c-80.8-12-136.8-88-124.8-168.8s88-136.8 168.8-124.8 136.8 88 124.8 168.8-88 137.6-168.8 124.8z m42.4-281.6c-74.4-11.2-144.8 40-156 115.2s40 144.8 115.2 156 144.8-40 156-115.2-40.8-144.8-115.2-156z" p-id="631"></path><path d="M789.6 476v-264c0-30.4-24-54.4-54.4-54.4h-24c-0.8-27.2-23.2-49.6-50.4-49.6h-43.2v-1.6c0-28-22.4-50.4-50.4-50.4H420c-28 0-50.4 22.4-50.4 50.4l-45.6 1.6c-27.2 0-49.6 22.4-50.4 49.6h-24c-29.6 0-54.4 24-54.4 54.4V768c0 29.6 24.8 54.4 54.4 54.4h210.4c12.8 0 23.2-11.2 23.2-24s-10.4-24-23.2-24H249.6c-3.2 0-6.4-3.2-6.4-6.4V212c0-3.2 3.2-6.4 6.4-6.4h24v12c0 28 22.4 50.4 50.4 50.4h336c28 0 50.4-22.4 50.4-50.4v-12h24c3.2 0 6.4 3.2 6.4 6.4v266.4c0.8 12 11.2 22.4 24 22.4 13.6 0 24-10.4 24-24l0.8-0.8zM663.2 218.4c0 1.6-0.8 2.4-2.4 2.4H324c-1.6 0-2.4-0.8-2.4-2.4v-59.2c0-1.6 0.8-2.4 2.4-2.4h69.6c13.6 0 24-10.4 24-24v-24.8c0-1.6 0.8-2.4 2.4-2.4h147.2c1.6 0 2.4 0.8 2.4 2.4v24.8c0 13.6 10.4 24 24 24h67.2c1.6 0 2.4 0.8 2.4 2.4v59.2z" p-id="632"></path></svg>