<?xml version="1.0" standalone="no"?><!DOCTYPE svg PUBLIC "-//W3C//DTD SVG 1.1//EN" "http://www.w3.org/Graphics/SVG/1.1/DTD/svg11.dtd"><svg t="1566376470629" class="icon" viewBox="0 0 1024 1024" version="1.1" xmlns="http://www.w3.org/2000/svg" p-id="3995" xmlns:xlink="http://www.w3.org/1999/xlink" width="200" height="200"><defs><style type="text/css"></style></defs><path d="M880.630875 1024H142.570728c-12.546224 0-22.811317-10.265092-22.811316-22.811317V22.811317c0-12.546224 10.265092-22.811317 22.811316-22.811317h739.31477c12.546224 0 22.811317 10.265092 22.811316 22.811317V118.846959c0 12.546224-10.265092 22.811317-22.811316 22.811317s-22.811317-10.265092-22.811317-22.811317V45.622633H165.382045v932.754734h693.692136V216.93562c0-12.546224 10.265092-22.811317 22.811317-22.811316s22.811317 10.265092 22.811316 22.811316v783.112498c-0.114057 13.116507-10.835375 23.951882-24.065939 23.951882z" p-id="3996" fill="#ffffff"></path><path d="M721.864112 205.529962H302.478057c-12.546224 0-22.811317-10.265092-22.811316-22.811316s10.265092-22.811317 22.811316-22.811317H721.864112c12.546224 0 22.811317 10.265092 22.811317 22.811317s-10.265092 22.811317-22.811317 22.811316zM721.864112 368.744932H302.478057c-12.546224 0-22.811317-10.265092-22.811316-22.811316s10.265092-22.811317 22.811316-22.811317H721.864112c12.546224 0 22.811317 10.265092 22.811317 22.811317s-10.265092 22.811317-22.811317 22.811316zM527.967922 531.845845H302.478057c-12.546224 0-22.811317-10.265092-22.811316-22.811316s10.265092-22.811317 22.811316-22.811317H527.967922c12.546224 0 22.811317 10.265092 22.811316 22.811317 0 12.660281-10.265092 22.811317-22.811316 22.811316zM668.257518 886.561818c-4.67632 0-9.35264-1.482736-13.230563-4.220094-7.071508-5.01849-10.607262-13.68679-9.238583-22.241033l3.763867-22.69726-16.652261-15.967922c-6.273112-6.044999-8.554244-15.055469-5.930943-23.381599 2.623301-8.326131 9.69481-14.371129 18.249054-15.625752l22.811316-3.535754 10.036979-20.758298c3.763867-7.869904 11.633771-12.774337 20.302072-12.888394h0.228113c8.554244 0 16.538204 4.904433 20.416129 12.546224l10.379149 20.530185 22.811316 3.079527c8.554244 1.140566 15.739808 7.185565 18.591223 15.397639 2.737358 8.212074 0.570283 17.336601-5.588772 23.3816l-16.424148 16.196034 4.106037 22.69726c1.482736 8.554244-1.938962 17.222544-8.896414 22.355091-6.957452 5.132546-16.310091 5.930942-23.951882 1.938961l-20.530185-10.607262-20.302072 10.835376c-3.649811 2.053018-7.299621 2.965471-10.949432 2.965471z m26.233014-67.179327c0.798396 1.596792 1.368679 3.421697 1.710849 5.132546 1.824905-0.228113 3.649811-0.228113 5.474716 0 0.34217-1.824905 0.912453-3.535754 1.596792-5.132546-1.596792-0.912453-3.079528-1.938962-4.448206-3.193585-1.254622 1.254622-2.737358 2.281132-4.334151 3.193585z" p-id="3997" fill="#ffffff"></path><path d="M698.710626 945.985297c-71.741591 0-130.024504-58.39697-130.024504-130.024504s58.39697-130.024504 130.024504-130.024504 130.024504 58.39697 130.024504 130.024504-58.282914 130.024504-130.024504 130.024504z m0-214.540432c-46.535086 0-84.401871 37.866785-84.401871 84.401871s37.866785 84.401871 84.401871 84.401872 84.401871-37.866785 84.401871-84.401872c0.114057-46.535086-37.752729-84.401871-84.401871-84.401871z" p-id="3998" fill="#ffffff"></path></svg>