<?xml version="1.0" standalone="no"?><!DOCTYPE svg PUBLIC "-//W3C//DTD SVG 1.1//EN" "http://www.w3.org/Graphics/SVG/1.1/DTD/svg11.dtd"><svg t="1566293721383" class="icon" viewBox="0 0 1024 1024" version="1.1" xmlns="http://www.w3.org/2000/svg" p-id="1306" xmlns:xlink="http://www.w3.org/1999/xlink" width="200" height="200"><defs><style type="text/css"></style></defs><path d="M926.8 901.6H97s0.2 32.7 17.3 45.6c12.9 9.7 30.3 8.3 53.1 8.3h689.3c24.3 0 43.1 1.7 56.7-8.9 16.1-12.6 13.4-45 13.4-45zM926.5 726.7c0-33.3-22.2-46.6-55-46.6h-166c-4.3-4.6-14.4-20-18.7-24.6-7.4-9-16.6-16.5-23.7-26-8.1-11-15.3-23-20.7-36.7-11.7-29.8-2.3-61.2 8.1-84.6 21.7-48.8 57.4-82.6 77.4-133.7 5-12.8 7.6-27.1 10.5-41.7 2.7-13.8 4.1-33.2 1.8-48.5-1.8-11.8-1.6-22.3-4.2-32.8-11.1-45.2-30.2-77.9-56.7-107.4-23.9-26.6-54.8-46.3-91.5-60.3-47.3-18-115.3-16.3-160.8 1.8-67.8 26.9-116.4 74.9-138.9 146.4-7.8 24.9-14.4 61.9-8.7 94.7 2.5 14.5 4.9 28 9 40.8 18.3 57.8 59 96.2 88.5 143.8 14.3 23.1 26.1 55.1 12 87.6-9.5 21.8-26.5 40.8-44.1 54.7-6.7 5.6-19.9 21.1-26.6 26.7-49.7 0-148.4-0.4-167.6-0.4s-46 24.9-50.5 42.9c-3.2 13-0.9 79.6-0.9 94.2 0 26.8-1.7 29.3-2.2 29.5h829.7c0.1-0.3-0.2-86.6-0.2-119.8z" fill="" p-id="1307"></path></svg>