<?xml version="1.0" standalone="no"?><!DOCTYPE svg PUBLIC "-//W3C//DTD SVG 1.1//EN" "http://www.w3.org/Graphics/SVG/1.1/DTD/svg11.dtd"><svg t="1592278440026" class="icon" viewBox="0 0 1024 1024" version="1.1" xmlns="http://www.w3.org/2000/svg" p-id="2945" xmlns:xlink="http://www.w3.org/1999/xlink" width="200" height="200"><defs><style type="text/css"></style></defs><path d="M508 280h-63.296a6.016 6.016 0 0 0-6.016 6.016v340.16h-5.696L197.44 282.624a6.08 6.08 0 0 0-4.896-2.592H125.984a6.016 6.016 0 0 0-5.984 6.016v464c0 3.296 2.688 5.984 6.016 5.984h62.688a6.016 6.016 0 0 0 5.984-6.016V405.12h5.728l238.176 348.32c1.12 1.6 3.008 2.592 5.024 2.592h64.384a6.016 6.016 0 0 0 6.016-6.016v-464a6.016 6.016 0 0 0-6.016-5.984z m378.016 412.992h-304a8 8 0 0 0-8 8v48c0 4.416 3.584 8 8 8h304a8 8 0 0 0 8-8v-48a8 8 0 0 0-8-8z m-152.224-62.976c52.896 0 95.2-17.216 126.208-51.712 29.408-32.896 44-75.808 44-128.8 0-53.12-14.592-96.512-44-129.28-30.912-34.816-73.216-52.224-126.208-52.224-53.696 0-95.904 17.504-126.304 52.8-29.184 33.088-43.392 75.904-43.392 128.704 0 52.384 14.304 95.2 43.52 128.32 30.592 34.688 72.96 52.16 126.176 52.16z m-71.488-263.712c16.896-20.608 40.32-30.912 71.392-30.912 31.52 0 54.816 9.6 71.008 29.12 16.384 20.288 24.896 48.576 24.896 84.896 0 36.288-8.384 64.096-24.8 83.904-16.512 19.392-40 29.184-71.104 29.184-31.2 0-55.008-10.304-71.392-30.4-16.32-20.096-24.512-47.296-24.512-82.592 0.096-35.808 8.192-63.008 24.512-83.2z" p-id="2946"></path></svg>