<?xml version="1.0" standalone="no"?><!DOCTYPE svg PUBLIC "-//W3C//DTD SVG 1.1//EN" "http://www.w3.org/Graphics/SVG/1.1/DTD/svg11.dtd"><svg t="1570586362874" class="icon" viewBox="0 0 1024 1024" version="1.1" xmlns="http://www.w3.org/2000/svg" p-id="3093" width="32" height="32" xmlns:xlink="http://www.w3.org/1999/xlink"><defs><style type="text/css"></style></defs><path d="M700.856275 155.542542c-74.768891 0-144.295384 72.696696-190.046381 127.260405C465.073224 228.226958 395.563104 155.542542 320.754305 155.542542c-134.789892 0-244.443291 105.780185-244.443291 235.799424 0 77.56968 39.277562 131.98808 70.844511 175.712931 91.752704 126.998439 322.464249 285.038872 332.234777 291.701618 9.410324 6.414083 20.424168 9.629311 31.401174 9.629311 11.005658 0 21.998013-3.215228 31.397081-9.629311 9.782807-6.662747 240.514819-164.703179 332.23887-291.701618 31.586392-43.723827 70.873164-98.143251 70.873164-175.712931C945.299567 261.321704 835.645145 155.542542 700.856275 155.542542L700.856275 155.542542zM700.856275 155.542542" p-id="3094" fill="#d81e06"></path></svg>