<?xml version="1.0" standalone="no"?><!DOCTYPE svg PUBLIC "-//W3C//DTD SVG 1.1//EN" "http://www.w3.org/Graphics/SVG/1.1/DTD/svg11.dtd"><svg t="1592794526200" class="icon" viewBox="0 0 1024 1024" version="1.1" xmlns="http://www.w3.org/2000/svg" p-id="4661" xmlns:xlink="http://www.w3.org/1999/xlink" width="200" height="200"><defs><style type="text/css"></style></defs><path d="M755.809524 1024C613.073676 1024 497.371429 908.297752 497.371429 765.561905S613.073676 507.12381 755.809524 507.12381 1014.247619 622.826057 1014.247619 765.561905 898.545371 1024 755.809524 1024zM741.180952 955.733333h29.257143v-58.514285h-29.257143v58.514285z m21.484496-308.575085c25.112381 0 43.944229 10.142476 61.322971 23.181409l14.482286-19.319467C820.731124 636.830476 796.047848 625.605486 770.438095 623.85981V565.638095h-29.257143v58.514286h10.132724c-46.32381 4.486095-72.187124 34.191848-72.187124 68.881067 0 44.422095 42.491124 60.357486 80.642438 73.874285 29.93981 10.620343 62.288457 24.624762 62.288458 55.052191 0 26.555733-19.797333 48.761905-58.914134 48.761905-35.245105 0-58.904381-13.5168-81.120304-32.348648l-14.960153 20.284952c23.171657 19.309714 56.97341 35.245105 94.637105 35.245105 56.97341 0 88.366324-33.801752 88.366324-73.396419 0-49.737143-43.45661-63.73181-83.051276-78.701714-29.93981-11.107962-59.879619-21.728305-59.87962-50.224762 0-23.171657 17.378743-44.422095 55.530058-44.422095zM751.313676 624.152381c3.969219-0.390095 8.045714-0.65341 12.317257-0.65341 2.282057 0 4.54461 0.2048 6.807162 0.360839V624.152381h-19.124419zM458.361905 755.809524c0 43.729676 10.308267 85.089524 28.623238 121.904762H68.266667a58.514286 58.514286 0 0 1-58.514286-58.514286V370.590476a58.514286 58.514286 0 0 1 58.514286-58.514286h19.504762V19.504762a19.504762 19.504762 0 0 1 19.504761-19.504762h575.390477a19.504762 19.504762 0 0 1 19.504762 19.504762v351.085714h29.257142a58.514286 58.514286 0 0 1 58.514286 58.514286v52.965181A288.865524 288.865524 0 0 0 741.180952 477.866667c-156.194133 0-282.819048 124.440381-282.819047 277.942857zM663.161905 68.266667a19.504762 19.504762 0 0 0-19.504762-19.504762H156.038095a19.504762 19.504762 0 0 0-19.504762 19.504762v243.809523h165.790477a58.514286 58.514286 0 0 1 58.514285 58.514286h302.32381V68.266667zM204.8 253.561905v-9.752381a19.504762 19.504762 0 0 1 19.504762-19.504762h331.580952a19.504762 19.504762 0 0 1 19.504762 19.504762v9.752381a19.504762 19.504762 0 0 1-19.504762 19.504762H224.304762a19.504762 19.504762 0 0 1-19.504762-19.504762z m351.085714-97.52381H224.304762a19.504762 19.504762 0 1 1 0-39.009524h331.580952a19.504762 19.504762 0 1 1 0 39.009524z" p-id="4662"></path></svg>