<?xml version="1.0" standalone="no"?><!DOCTYPE svg PUBLIC "-//W3C//DTD SVG 1.1//EN" "http://www.w3.org/Graphics/SVG/1.1/DTD/svg11.dtd"><svg t="1566374381707" class="icon" viewBox="0 0 1024 1024" version="1.1" xmlns="http://www.w3.org/2000/svg" p-id="1700" xmlns:xlink="http://www.w3.org/1999/xlink" width="200" height="200"><defs><style type="text/css"></style></defs><path d="M919.263 887.068l-66.905 133.62-66.935-133.645-66.905 133.645-66.91-133.62-66.93 133.62-66.91-133.645-66.93 133.625-66.91-133.625-66.93 133.625-66.907-133.6-66.887 133.6-66.952-133.625-99.59 136.955L16.662 99.48C16.662 44.62 61.327 0 116.252 0l803.01 0c54.925 0 99.615 44.62 99.615 99.48l0 924.518L919.263 887.068zM953.618 704.638l-0.105 0L953.513 99.48c0-18.822-15.36-34.117-34.25-34.117l-803.01 0c-18.867 0-34.227 15.295-34.227 34.117l0 709.938 0.11-0.22 0 64.12 100.33 0 0.717 1.39 0.697-1.39 132.422 0 0.697 1.39 0.72-1.39 132.422 0 0.697 1.39 0.717-1.39 132.422 0 0.7 1.37 0.695-1.37 132.445 0 0.7 1.37 0.695-1.37 132.445 0 0.7 1.37 0.69-1.37 100.57 0L953.617 704.638zM774.658 653.593l-158.11 0c-14.53 0-26.34-11.765-26.34-26.275 0-14.51 11.81-26.275 26.34-26.275l158.11 0c14.535 0 26.345 11.765 26.345 26.275C801.003 641.828 789.193 653.593 774.658 653.593zM774.658 522.219 537.529 522.219c-14.55 0-26.36-11.767-26.36-26.3 0-14.51 11.81-26.252 26.36-26.252l237.129 0c14.535 0 26.345 11.742 26.345 26.252C801.003 510.451 789.193 522.219 774.658 522.219zM774.658 390.819 537.529 390.819c-14.55 0-26.36-11.765-26.36-26.275 0-14.512 11.81-26.255 26.36-26.255l237.129 0c14.535 0 26.345 11.742 26.345 26.255C801.003 379.054 789.193 390.819 774.658 390.819zM774.658 259.464 537.529 259.464c-14.55 0-26.36-11.765-26.36-26.277 0-14.51 11.81-26.275 26.36-26.275l237.129 0c14.535 0 26.345 11.765 26.345 26.275C801.003 247.699 789.193 259.464 774.658 259.464zM326.217 569.234l0 51.965c-7.387 1.785-14.947 2.68-22.66 2.68-7.735 0-15.467-0.895-23.202-2.68l0-47.5-4.205 0c-11.592 0-21.962-0.3-31.09-0.89-9.152-0.61-17.845-1.57-26.08-2.92-8.257-1.33-16.427-3.05-24.51-5.14-8.085-2.095-16.515-4.62-25.295-7.63 1.045-8.65 2.985-17.385 5.795-26.19 2.81-8.82 6.142-17.992 10.022-27.557 14.75 5.075 28.627 8.585 41.612 10.522 13.007 1.94 26.885 2.92 41.635 2.92 22.137 0 39.262-3.202 51.375-9.63 12.135-6.427 18.192-16.797 18.192-31.135 0-7.167-1.678-13.072-5.01-17.69-3.335-4.64-7.562-8.452-12.637-11.437-5.098-2.985-10.807-5.512-17.147-7.605-6.317-2.09-12.462-4.335-18.43-6.732l-27.932-10.305c-11.59-4.163-22.135-8.563-31.612-13.202-9.5-4.64-17.647-10.152-24.512-16.58-6.84-6.405-12.112-13.965-15.795-22.615-3.702-8.672-5.532-19.26-5.532-31.81 0-26.865 8.952-48.062 26.862-63.597 17.91-15.512 42.68-24.925 74.295-28.212l0-47.497c7.385-1.787 14.922-2.68 22.657-2.68 7.387 0 15.12 0.893 23.205 2.68l0 46.145c14.03 0.892 27.56 2.615 40.567 5.162 12.985 2.53 26.69 5.905 41.112 10.067-2.115 17.32-7.735 34.357-16.865 51.067-5.272-1.785-10.63-3.572-16.077-5.357-5.447-1.81-11.242-3.29-17.387-4.49-6.165-1.197-13.092-2.155-20.827-2.917-7.735-0.742-16.515-1.113-26.34-1.113-5.97 0-12.027 0.37-18.172 1.113-6.165 0.762-11.697 2.33-16.6 4.705-4.925 2.397-8.955 5.752-12.137 10.065-3.158 4.357-4.727 9.935-4.727 16.8 0 5.99 1.22 11.067 3.682 15.25 2.462 4.16 5.795 7.67 10.022 10.5 4.205 2.855 8.955 5.317 14.227 7.387 5.25 2.092 10.522 4.03 15.795 5.837l31.612 11.2c13.357 4.77 25.47 9.565 36.365 14.335 10.892 4.772 20.107 10.525 27.67 17.235 7.56 6.732 13.442 14.945 17.647 24.64 4.225 9.717 6.34 21.875 6.34 36.515 0 24.49-8.17 45.167-24.512 62.047C381.272 551.829 357.482 563.264 326.217 569.234z" p-id="1701"></path></svg>