<?xml version="1.0" standalone="no"?><!DOCTYPE svg PUBLIC "-//W3C//DTD SVG 1.1//EN" "http://www.w3.org/Graphics/SVG/1.1/DTD/svg11.dtd"><svg t="1592277682081" class="icon" viewBox="0 0 1024 1024" version="1.1" xmlns="http://www.w3.org/2000/svg" p-id="3596" xmlns:xlink="http://www.w3.org/1999/xlink" width="200" height="200"><defs><style type="text/css"></style></defs><path d="M384 102.4C172.8 102.4 0 240 0 409.6c0 96 54.4 182.4 140.8 240L102.4 768l128-76.8c44.8 16 96 25.6 150.4 25.6-12.8-32-22.4-67.2-22.4-102.4 0-169.6 160-307.2 358.4-307.2h28.8C694.4 188.8 550.4 102.4 384 102.4m-153.6 128c28.8 0 51.2 22.4 51.2 51.2s-22.4 51.2-51.2 51.2-51.2-22.4-51.2-51.2c0-28.8 22.4-51.2 51.2-51.2m256 0c28.8 0 51.2 22.4 51.2 51.2s-22.4 51.2-51.2 51.2-51.2-22.4-51.2-51.2c0-28.8 22.4-51.2 51.2-51.2m230.4 128c-169.6 0-307.2 115.2-307.2 256s137.6 256 307.2 256c35.2 0 67.2-3.2 99.2-12.8l105.6 64-32-96c80-48 134.4-124.8 134.4-211.2 0-140.8-137.6-256-307.2-256m-102.4 128c28.8 0 51.2 22.4 51.2 51.2 0 28.8-22.4 51.2-51.2 51.2-28.8 0-51.2-22.4-51.2-51.2 0-28.8 22.4-51.2 51.2-51.2m204.8 0c28.8 0 51.2 22.4 51.2 51.2 0 28.8-22.4 51.2-51.2 51.2-28.8 0-51.2-22.4-51.2-51.2 0-28.8 22.4-51.2 51.2-51.2z" fill="#888888" p-id="3597"></path></svg>