<?xml version="1.0" standalone="no"?><!DOCTYPE svg PUBLIC "-//W3C//DTD SVG 1.1//EN" "http://www.w3.org/Graphics/SVG/1.1/DTD/svg11.dtd"><svg t="1604540343394" class="icon" viewBox="0 0 1138 1024" version="1.1" xmlns="http://www.w3.org/2000/svg" p-id="1255" xmlns:xlink="http://www.w3.org/1999/xlink" width="222.265625" height="200"><defs><style type="text/css"></style></defs><path d="M113.777778 834.370363C54.968889 834.370363 0 778.803496 0 720.592585L0 108.266677C0 50.126071 54.968889 1.0e-05 113.777778 1.0e-05L1024 1.0e-05C1082.737778 1.0e-05 1137.777778 50.126071 1137.777778 108.266677L1137.777778 720.592585C1137.777778 778.803496 1082.737778 834.370363 1024 834.370363L113.777778 834.370363ZM75.851852 113.777787 75.851852 720.592593C75.851852 739.925925 94.222222 758.518519 113.777778 758.518519 113.777778 758.518519 994.312871 760.162824 1024 758.518519 1053.687129 756.874213 1061.925926 739.925925 1061.925926 720.592593L1061.925926 108.266677C1061.925926 88.86304 1045.925926 73.115162 1026.37037 73.115162L113.777778 75.851862C94.222222 75.851862 75.851852 94.37415 75.851852 113.777787ZM889.180334 916.751527C908.656166 916.751527 924.444444 932.354048 924.444444 951.903042L924.444444 951.903042C924.444444 971.316687 908.930549 987.054554 889.180334 987.054554L248.597444 987.054554C229.121613 987.054554 213.333333 971.452033 213.333333 951.903042L213.333333 951.903042C213.333333 932.489394 228.84723 916.751527 248.597444 916.751527L889.180334 916.751527ZM520.476122 338.643214C496.036219 325.774718 477.330819 335.493582 477.330819 360.240689L477.330819 490.545467C477.330819 515.337573 495.990708 525.011441 520.339589 512.007961L639.125709 448.520378C663.383563 435.561889 663.74766 414.414363 639.307757 401.545865L520.476122 338.643214 520.476122 338.643214Z" p-id="1256"></path></svg>